<svg width="84" height="24" viewBox="0 0 84 24" fill="none" xmlns="http://www.w3.org/2000/svg">
<g clip-path="url(#clip0_417_2)">
<path d="M20.6191 23.7264C21.6233 23.7264 22.4422 22.9466 22.4422 21.9869C22.4422 21.0422 21.6233 20.2324 20.6191 20.2324C19.5994 20.2324 18.8115 21.0422 18.8115 21.9869C18.8115 22.9466 19.5994 23.7264 20.6191 23.7264Z" fill="#E1FF9B"/>
<path d="M27.0141 23.5164V19.2427C27.0141 18.3129 27.6939 17.6981 28.6363 17.6981C29.347 17.6981 29.8723 18.223 29.8723 18.8978V23.5164H33.2712V19.2427C33.2712 18.3279 33.9818 17.6981 34.8625 17.6981C35.5731 17.6981 36.1448 18.118 36.1448 18.8978V23.5164H39.5437V18.4329C39.5437 16.5584 38.0296 15.5537 36.0057 15.5537C34.6307 15.5537 33.5338 16.0036 32.7922 16.8733C32.2051 16.0036 31.2473 15.5537 29.8259 15.5537C28.5745 15.5537 27.5857 15.9586 26.8905 16.7684L26.8133 15.7787H23.6152V23.5164H27.0141Z" fill="#E1FF9B"/>
<path d="M46.049 23.8011C48.9535 23.8011 51.5336 22.3165 51.5336 19.6922C51.5336 17.038 49.0462 15.5234 46.049 15.5234C43.1136 15.5234 40.5645 16.978 40.5645 19.6922C40.5645 22.3165 43.1136 23.8011 46.049 23.8011ZM46.0336 21.6567C44.8903 21.6567 43.9942 20.7569 43.9942 19.6622C43.9942 18.5826 44.8903 17.6678 46.0336 17.6678C47.1768 17.6678 48.1038 18.5826 48.1038 19.6622C48.1038 20.7569 47.1768 21.6567 46.0336 21.6567Z" fill="#E1FF9B"/>
<path d="M55.9516 23.5161V19.3923C55.9516 18.3576 56.7086 17.7728 57.7283 17.7728C58.5934 17.7728 59.1187 18.2377 59.1187 19.0024V23.5161H62.5176V18.3876C62.5176 16.5431 60.9418 15.5684 58.9179 15.5684C57.5738 15.5684 56.5541 16.0033 55.8589 16.8431L55.7353 15.7784H52.5527V23.5161H55.9516Z" fill="#E1FF9B"/>
<path d="M74.203 15.7781H70.1088L68.5639 17.0977L67.158 18.3873L67.1889 16.7528V12.8389H63.79V23.5158H67.1889V21.1015L68.0077 20.5017L68.7338 21.4314L70.4024 23.5158H74.5428L70.3097 18.8972L74.203 15.7781Z" fill="#E1FF9B"/>
<path d="M78.9246 23.8309C82.0609 23.8309 83.8685 22.9911 83.8685 21.0117C83.8685 19.677 82.8179 18.7923 80.2842 18.5824L78.5075 18.4324C77.7041 18.3574 77.3488 18.1775 77.3488 17.8026C77.3488 17.3977 77.8895 17.1878 78.7701 17.1878C79.8825 17.1878 80.2842 17.4277 80.4078 17.9675L83.5595 17.8926C83.2814 16.333 81.7364 15.4932 78.8937 15.4932C75.742 15.4932 74.3361 16.5279 74.3361 18.1175C74.3361 19.4821 75.3867 20.2769 77.8122 20.5018L79.6353 20.6668C80.3305 20.7267 80.7167 20.9067 80.7167 21.3266C80.7167 21.7914 80.2069 22.0614 79.0791 22.0614C77.8895 22.0614 77.4569 21.7315 77.3179 21.1166L74.0889 21.1916C74.3052 22.8111 75.7111 23.8309 78.9246 23.8309Z" fill="#E1FF9B"/>
<path d="M3.39889 12.7958V8.52196C3.39889 7.59222 4.07867 6.9774 5.02109 6.9774C5.73177 6.9774 6.25705 7.50225 6.25705 8.17706V12.7958H9.65594V8.52196C9.65594 7.60722 10.3666 6.9774 11.2472 6.9774C11.9579 6.9774 12.5296 7.39728 12.5296 8.17706V12.7958H15.9284V7.71219C15.9284 5.83773 14.4144 4.83301 12.3905 4.83301C11.0155 4.83301 9.91859 5.28288 9.17701 6.15264C8.58993 5.28288 7.63206 4.83301 6.2107 4.83301C4.95929 4.83301 3.97052 5.2379 3.2753 6.04767L3.19805 5.05795H0V12.7958H3.39889Z" fill="#E1FF9B"/>
<path d="M22.4644 13.065C24.6891 13.065 26.6976 12.3302 27.4855 10.5457L24.2257 10.3808C23.8858 10.9356 23.3141 11.2055 22.449 11.2055C21.1821 11.2055 20.4714 10.6507 20.3015 9.61601H27.7481V9.22612C27.7481 6.4819 25.4307 4.81738 22.2945 4.81738C19.3436 4.81738 16.918 6.33194 16.918 8.9262C16.918 11.5954 19.3282 13.065 22.4644 13.065ZM20.3169 8.07145C20.5178 7.12672 21.1821 6.66185 22.3099 6.66185C23.4532 6.66185 24.0866 7.12672 24.2411 8.07145H20.3169Z" fill="#E1FF9B"/>
<path d="M36.2039 5.80711C35.4315 5.10231 34.3963 4.7724 33.114 4.7724C30.7348 4.7724 28.6182 6.19699 28.6182 8.92621C28.6182 11.5354 30.3949 13.11 33.1758 13.11C34.6281 13.11 35.6941 12.6601 36.3893 11.7904L36.482 12.7951H39.6028V2.11816H36.2039V5.80711ZM34.1028 10.8606C33.0368 10.8606 32.048 10.3808 32.048 8.88123C32.048 7.41165 33.0522 6.8718 34.1183 6.8718C35.416 6.8718 36.2812 7.5616 36.2812 8.88123C36.2812 10.2158 35.416 10.8606 34.1028 10.8606Z" fill="#E1FF9B"/>
<path d="M42.6213 4.27722C43.5946 4.27722 44.3208 3.60242 44.3208 2.6127C44.3208 1.68296 43.5946 0.993164 42.6213 0.993164C41.648 0.993164 40.9219 1.68296 40.9219 2.6127C40.9219 3.60242 41.648 4.27722 42.6213 4.27722ZM44.3208 12.7948V5.057H40.9219V12.7948H44.3208Z" fill="#E1FF9B"/>
<path d="M55.9331 12.7948C55.655 12.2999 55.5623 11.5951 55.5623 10.8453V7.77125C55.5623 5.8668 54.3418 4.78711 50.7266 4.78711C47.3277 4.78711 45.9836 5.71684 45.7519 7.50133L48.9963 7.6213C49.0735 6.67657 49.7224 6.43663 50.6493 6.43663C51.7463 6.43663 52.1634 6.73655 52.1634 7.41136V7.54632C52.1634 7.80124 52.0707 7.90621 51.1746 7.99619L48.6718 8.23612C46.0145 8.49105 45.3193 9.3458 45.3193 10.7104C45.3193 12.3149 46.4471 13.1097 48.9036 13.1097C50.4794 13.1097 51.5918 12.7648 52.3488 12.06C52.4106 12.3749 52.4878 12.5848 52.5651 12.7948H55.9331ZM49.8151 11.3552C48.9963 11.3552 48.6255 11.0703 48.6255 10.5154C48.6255 9.99062 48.9036 9.67571 50.1086 9.54075L52.0244 9.31581C52.1016 9.30082 52.1789 9.30082 52.2561 9.27082V9.75069C52.2561 10.7704 51.1592 11.3552 49.8151 11.3552Z" fill="#E1FF9B"/>
</g>
<defs>
<clipPath id="clip0_417_2">
<rect width="84" height="24" fill="white"/>
</clipPath>
</defs>
</svg>
